<svg version="1.1" id="pharmago-logo" xmlns="http://www.w3.org/2000/svg" xmlns:xlink="http://www.w3.org/1999/xlink"
  x="0px" y="0px" width="100%" viewBox="0 0 765 155" enable-background="new 0 0 765 155" xml:space="preserve">
  <path fill="#00000000" opacity="1.000000" stroke="none" d="
M766.000000,88.000000
	C766.000000,110.661285 766.000000,133.322571 766.000000,155.987885
	C511.065918,155.991928 256.131836,155.991928 1.098879,155.991928
	C1.098879,104.411690 1.098879,52.823120 1.098879,1.117278
	C255.999969,1.117278 510.999969,1.117278 766.000000,1.117278
	C766.000000,24.078445 766.000000,47.073181 765.581299,70.668884
	C764.773987,68.427299 764.252502,65.595581 764.020020,62.740322
	C763.044678,50.761242 756.930115,40.901966 744.308044,38.352551
	C739.341797,37.349461 734.028076,38.013515 728.872559,38.012760
	C720.008728,38.011459 712.625061,43.260540 709.764465,51.621292
	C704.379150,67.361214 704.963623,83.512100 707.436462,99.546524
	C708.872864,108.860481 712.755859,117.565048 723.347107,119.838737
	C728.758850,121.000496 734.489685,120.762260 740.083252,120.967010
	C746.101929,121.187347 751.321533,119.005493 755.598450,114.841988
	C761.738098,108.865150 763.894409,101.310341 764.089905,92.937469
	C764.128723,91.277687 765.333130,89.645119 766.000000,88.000000
M343.935028,79.260048
	C343.957642,70.265785 343.995728,61.271538 343.999420,52.277271
	C344.005615,37.109543 345.078033,39.146610 329.973206,38.995262
	C325.995148,38.955402 324.424377,41.204563 325.091400,44.724934
	C326.741302,53.432629 326.327087,62.021351 324.679688,70.583725
	C318.316681,70.583725 312.272247,70.583725 305.992859,70.583725
	C305.992859,62.181549 305.996216,54.194920 305.991852,46.208286
	C305.987946,39.007767 305.984222,39.007771 298.815308,39.000984
	C287.955292,38.990704 288.103821,38.992668 287.959747,49.877686
	C287.797241,62.154709 287.247345,74.426201 287.027405,86.702995
	C286.875275,95.195786 287.000000,103.693481 286.995178,112.188980
	C286.990845,119.816429 286.989075,119.768929 294.367371,120.037529
	C295.974609,120.096039 297.558563,120.663658 299.163727,120.934723
	C302.767761,121.543350 305.882385,119.478050 305.927368,116.255737
	C306.032471,108.726219 305.992279,101.194664 306.009094,93.663933
	C306.013031,91.899765 306.009674,90.135590 306.009674,88.262085
	C312.617035,88.262085 318.536438,88.262085 324.991760,88.262085
	C324.991760,95.629128 324.992950,102.742805 324.991455,109.856483
	C324.989502,119.032028 324.990997,119.010849 334.006744,120.039574
	C335.295227,120.186592 336.534180,120.848640 337.818604,120.934380
	C341.027649,121.148575 343.219788,120.285065 343.070709,116.302444
	C342.955048,113.213249 343.496552,110.099464 343.962463,106.078934
	C343.902863,97.457245 343.843231,88.835556 343.935028,79.260048
M58.500000,25.999752
	C44.834026,26.000095 31.168055,25.998060 17.502083,26.001659
	C9.062378,26.003883 3.010573,32.070297 3.006590,40.594837
	C2.993118,69.426819 2.995054,98.258812 3.005195,127.090805
	C3.008164,135.530060 10.138654,142.951431 18.535320,142.971161
	C47.200489,143.038498 75.866081,143.049973 104.531151,142.964294
	C112.948219,142.939148 120.906746,135.259155 120.944664,126.925308
	C121.075089,98.260574 121.094078,69.594337 120.936653,40.929871
	C120.888687,32.196495 114.142548,26.004961 105.497856,26.001959
	C90.165237,25.996632 74.832619,26.000013 58.500000,25.999752
M505.474976,118.894066
	C506.208588,106.043030 506.942200,93.191994 507.675446,80.347496
	C507.766510,80.417892 508.217316,80.610947 508.427765,80.952209
	C512.031677,86.796562 515.607056,92.658531 519.186279,98.518105
	C521.973328,103.080933 527.097656,103.176346 530.109619,98.624527
	C531.553406,96.442619 532.711365,94.073402 534.041565,91.814163
	C536.386230,87.831795 538.763672,83.868721 541.127441,79.897583
	C542.105835,90.296768 541.947937,100.275414 542.150757,110.246712
	C542.349121,120.002266 542.510498,119.998993 552.149170,120.000031
	C560.692627,120.000954 560.682007,120.001785 560.021729,111.666733
	C559.929932,110.508217 560.000244,109.336639 560.000122,108.171112
	C559.998901,88.689865 560.061646,69.208344 559.974731,49.727486
	C559.919495,37.342041 561.741333,39.301113 549.042664,38.922165
	C544.971619,38.800678 542.451416,40.127007 540.944641,43.885124
	C540.160767,45.840134 538.945374,47.628494 537.866699,49.457802
	C533.256897,57.275414 528.625488,65.080254 523.893005,73.073761
	C518.535156,63.262775 513.367859,53.642254 508.012177,44.127743
	C506.945709,42.233150 505.319824,39.521469 503.673004,39.304581
	C499.293304,38.727779 494.756165,39.231411 490.297485,39.536602
	C489.821289,39.569199 489.104797,41.117416 489.080658,41.978817
	C488.671814,56.569622 488.203583,71.161766 488.084137,85.756363
	C488.027405,92.687195 488.795288,99.620598 488.979065,106.558418
	C489.392578,122.170822 486.058075,119.877426 503.412842,119.932343
	C503.887573,119.933846 504.363098,119.680862 505.474976,118.894066
M588.993408,116.174400
	C589.408997,108.947220 589.824585,101.720032 590.268555,93.999161
	C592.837463,93.999161 595.123962,93.998985 597.410461,93.999184
	C610.085815,94.000298 610.116760,94.000549 610.028931,106.588478
	C609.923584,121.684853 608.825745,119.937035 623.294861,119.991013
	C628.202881,120.009323 630.304993,117.106964 630.021118,112.242104
	C629.452576,102.498581 628.225464,92.602829 629.325256,83.005424
	C630.460083,73.102547 629.820618,63.485992 627.671753,54.118332
	C626.002930,46.843624 621.320679,40.402943 613.102905,39.085407
	C606.629272,38.047497 599.949341,38.164307 593.355835,38.039371
	C585.124146,37.883400 576.771973,43.522739 574.889404,51.657188
	C573.018005,59.743622 571.714417,68.052948 571.160583,76.331345
	C570.331787,88.718445 570.291382,101.162788 570.116028,113.585617
	C570.077087,116.345581 570.636841,119.547363 574.239441,119.866188
	C578.204956,120.217140 582.239014,120.145172 586.210205,119.835083
	C587.196716,119.758049 588.056091,118.052246 588.993408,116.174400
M363.067078,43.534290
	C360.724426,48.143986 356.928192,52.571751 356.324005,57.399033
	C354.790955,69.647446 354.614075,82.071617 354.066162,94.433037
	C353.930359,97.496468 354.639343,100.590111 354.619690,103.667686
	C354.593353,107.789566 353.907593,111.932953 354.201660,116.016945
	C354.302002,117.410713 356.403107,119.641083 357.768433,119.783905
	C362.325012,120.260567 366.962463,119.964493 372.637451,119.964493
	C372.637451,110.979385 372.637451,102.652878 372.637451,94.012085
	C379.016266,94.012085 384.319763,93.956520 389.621277,94.034538
	C392.452118,94.076187 394.333374,95.154999 394.023834,98.515602
	C393.601868,103.098160 393.498840,107.712196 393.006897,112.285614
	C392.480865,117.175606 394.781372,119.975235 399.708374,119.997276
	C402.038391,120.007706 404.381317,119.842400 406.695862,120.031853
	C411.497742,120.424911 413.168884,118.263390 413.046539,113.576828
	C412.574493,95.497154 412.375000,77.410553 411.963806,59.329033
	C411.724030,48.786201 401.913300,36.937107 389.559875,37.961620
	C386.419250,38.222088 383.218048,38.231895 380.080811,37.951866
	C373.843353,37.395115 368.460510,39.284790 363.067078,43.534290
M480.966522,114.982002
	C481.035248,106.590553 480.891266,106.666260 473.263947,104.067192
	C471.023621,103.303772 468.655609,101.529594 467.401215,99.550064
	C464.873535,95.561295 463.070221,91.113503 461.371002,87.671234
	C465.855042,84.113976 470.794800,81.458054 473.947784,77.410324
	C479.227600,70.632263 480.066101,62.781399 477.249298,54.234550
	C473.891296,44.045521 467.994812,39.004986 457.343445,39.000740
	C448.970825,38.997406 440.598206,38.998428 432.225586,38.999512
	C423.489838,39.000641 422.887207,39.478771 423.031586,48.216965
	C423.239716,60.814228 423.826294,73.406883 423.914062,86.003860
	C423.962952,93.018829 423.095428,100.037033 423.049255,107.056465
	C422.945892,122.769730 421.771149,119.505096 436.430145,120.083092
	C441.160553,120.269600 441.714386,117.117622 441.814880,114.124641
	C442.104126,105.509468 441.916962,96.878296 441.916962,88.253410
	C445.642883,93.528854 448.217621,99.096611 450.866486,104.628883
	C457.640869,118.777534 460.889160,120.699936 473.262024,120.113228
	C476.830780,119.944000 479.342712,119.149399 480.966522,114.982002
M693.110535,50.487453
	C690.717041,44.784321 686.379333,40.696724 680.585205,39.489319
	C674.360413,38.192165 667.820557,38.194473 661.408936,38.056370
	C652.008057,37.853878 644.891846,42.929913 642.002197,51.754845
	C636.525757,68.479500 637.633789,85.421120 640.750305,102.367760
	C642.473389,111.737221 647.815247,118.667107 657.193542,120.336739
	C664.031799,121.554169 671.383545,120.925682 678.361328,120.012192
	C684.598572,119.195641 689.027161,115.087311 692.335388,109.449356
	C698.082886,99.654556 696.547668,89.019722 696.532166,78.585419
	C696.530396,77.388847 693.449402,75.317665 691.664978,75.162643
	C685.554871,74.631866 679.364319,75.045151 673.249023,74.549095
	C670.062744,74.290642 666.549438,74.189400 666.145813,77.475471
	C665.621826,81.742081 666.753723,86.230080 667.418823,90.585213
	C667.464355,90.883141 669.560974,90.952019 670.707275,90.980042
	C673.090637,91.038307 675.476440,90.997643 678.089905,90.997643
	C677.577209,93.635170 677.381653,95.433739 676.867432,97.136086
	C675.393127,102.017601 671.258118,103.690216 666.925110,103.819588
	C662.703308,103.945625 658.541565,101.378860 658.324036,97.133278
	C657.726624,85.472305 657.712402,73.744049 658.281921,62.082203
	C658.466187,58.309269 661.105713,55.021862 666.226746,54.858475
	C671.319824,54.695980 676.009460,56.121059 676.608704,60.952377
	C677.376526,67.142281 680.691467,67.223320 685.130615,67.016052
	C687.290833,66.915192 689.467285,67.109932 691.622559,66.965080
	C695.814453,66.683365 697.257507,64.667885 696.227722,60.496677
	C695.447876,57.337994 694.468994,54.228462 693.110535,50.487453
M242.703049,38.039829
	C237.937378,38.360352 233.175797,38.839436 228.405029,38.962761
	C221.892517,39.131119 221.019699,39.857788 221.010910,46.484451
	C220.984253,66.613541 220.843155,86.743988 221.027328,106.871338
	C221.166840,122.116333 218.254456,119.735474 234.699402,120.038010
	C237.974274,120.098267 239.088257,118.820503 239.042023,115.626236
	C238.911636,106.614876 238.996460,97.600403 238.996460,87.999878
	C243.050781,87.999878 246.841858,88.063812 250.629593,87.978714
	C253.424927,87.915916 256.403320,88.233711 258.978241,87.394363
	C275.180908,82.112801 279.028656,71.342316 276.529877,55.996563
	C275.072693,47.047573 269.732269,41.314953 261.363190,39.244064
	C255.695969,37.841747 249.553940,38.358295 242.703049,38.039829
M164.000885,124.500000
	C164.001892,132.821930 164.034592,141.144058 163.984833,149.465698
	C163.969666,152.003830 164.298737,153.875778 167.783875,152.435867
	C167.853531,151.206787 167.991501,149.904770 167.991821,148.602722
	C168.002960,101.999695 168.001282,55.396660 168.000748,8.793630
	C168.000732,8.127900 168.247025,7.292309 167.938202,6.830071
	C167.181168,5.696980 166.166351,4.736116 165.255249,3.705952
	C164.837128,4.044878 164.419006,4.383803 164.000885,4.722728
	C164.000885,44.315151 164.000885,83.907578 164.000885,124.500000
z" />
  <path fill="#47CE74" opacity="1.000000" stroke="none" d="
M766.000000,87.666672
	C765.333130,89.645119 764.128723,91.277687 764.089905,92.937469
	C763.894409,101.310341 761.738098,108.865150 755.598450,114.841988
	C751.321533,119.005493 746.101929,121.187347 740.083252,120.967010
	C734.489685,120.762260 728.758850,121.000496 723.347107,119.838737
	C712.755859,117.565048 708.872864,108.860481 707.436462,99.546524
	C704.963623,83.512100 704.379150,67.361214 709.764465,51.621292
	C712.625061,43.260540 720.008728,38.011459 728.872559,38.012760
	C734.028076,38.013515 739.341797,37.349461 744.308044,38.352551
	C756.930115,40.901966 763.044678,50.761242 764.020020,62.740322
	C764.252502,65.595581 764.773987,68.427299 765.581299,71.134918
	C766.000000,71.750000 766.000000,72.500000 765.578979,73.508553
	C764.885742,77.699432 764.598633,81.631065 764.411743,85.567451
	C764.406189,85.686234 765.447021,85.854698 766.000000,86.000000
	C766.000000,86.444443 766.000000,86.888893 766.000000,87.666672
M743.937500,98.031738
	C745.996826,86.660172 746.096252,75.207153 744.300049,63.855671
	C743.287170,57.454945 738.639832,54.312889 733.280273,55.049500
	C728.678711,55.681931 725.142944,60.020077 725.046387,65.796822
	C724.887268,75.323784 724.864929,84.858307 725.067139,94.383659
	C725.159668,98.742462 727.060730,102.603531 731.529785,103.871559
	C737.011963,105.427048 740.798950,103.563652 743.937500,98.031738
z" />
  <path fill="#00000000" opacity="1.000000" stroke="none" d="
M766.000000,85.539368
	C765.447021,85.854698 764.406189,85.686234 764.411743,85.567451
	C764.598633,81.631065 764.885742,77.699432 765.578979,73.883553
	C766.000000,77.692909 766.000000,81.385818 766.000000,85.539368
z" />
  <path fill="#47CE74" opacity="1.000000" stroke="none" d="
M59.000000,25.999752
	C74.832619,26.000013 90.165237,25.996632 105.497856,26.001959
	C114.142548,26.004961 120.888687,32.196495 120.936653,40.929871
	C121.094078,69.594337 121.075089,98.260574 120.944664,126.925308
	C120.906746,135.259155 112.948219,142.939148 104.531151,142.964294
	C75.866081,143.049973 47.200489,143.038498 18.535320,142.971161
	C10.138654,142.951431 3.008164,135.530060 3.005195,127.090805
	C2.995054,98.258812 2.993118,69.426819 3.006590,40.594837
	C3.010573,32.070297 9.062378,26.003883 17.502083,26.001659
	C31.168055,25.998060 44.834026,26.000095 59.000000,25.999752
M57.376274,43.999622
	C49.760334,43.999622 42.144394,43.999622 34.343578,43.999622
	C34.343578,70.570602 34.343578,96.605934 34.343578,122.754539
	C38.613514,122.754539 42.535374,122.754539 47.082840,122.754539
	C47.082840,113.457512 47.082840,104.405220 47.082840,94.998360
	C51.347504,94.998360 55.007576,95.247993 58.619637,94.938080
	C63.656403,94.505936 68.883263,94.364067 73.630745,92.849983
	C87.377754,88.465714 93.528816,69.293213 85.837891,57.194122
	C79.299278,46.907810 69.570068,44.087372 57.376274,43.999622
z" />
  <path fill="#47CE74" opacity="1.000000" stroke="none" d="
M505.156616,119.220306
	C504.363098,119.680862 503.887573,119.933846 503.412842,119.932343
	C486.058075,119.877426 489.392578,122.170822 488.979065,106.558418
	C488.795288,99.620598 488.027405,92.687195 488.084137,85.756363
	C488.203583,71.161766 488.671814,56.569622 489.080658,41.978817
	C489.104797,41.117416 489.821289,39.569199 490.297485,39.536602
	C494.756165,39.231411 499.293304,38.727779 503.673004,39.304581
	C505.319824,39.521469 506.945709,42.233150 508.012177,44.127743
	C513.367859,53.642254 518.535156,63.262775 523.893005,73.073761
	C528.625488,65.080254 533.256897,57.275414 537.866699,49.457802
	C538.945374,47.628494 540.160767,45.840134 540.944641,43.885124
	C542.451416,40.127007 544.971619,38.800678 549.042664,38.922165
	C561.741333,39.301113 559.919495,37.342041 559.974731,49.727486
	C560.061646,69.208344 559.998901,88.689865 560.000122,108.171112
	C560.000244,109.336639 559.929932,110.508217 560.021729,111.666733
	C560.682007,120.001785 560.692627,120.000954 552.149170,120.000031
	C542.510498,119.998993 542.349121,120.002266 542.150757,110.246712
	C541.947937,100.275414 542.105835,90.296768 541.127441,79.897583
	C538.763672,83.868721 536.386230,87.831795 534.041565,91.814163
	C532.711365,94.073402 531.553406,96.442619 530.109619,98.624527
	C527.097656,103.176346 521.973328,103.080933 519.186279,98.518105
	C515.607056,92.658531 512.031677,86.796562 508.427765,80.952209
	C508.217316,80.610947 507.766510,80.417892 507.675446,80.347496
	C506.942200,93.191994 506.208588,106.043030 505.156616,119.220306
z" />
  <path fill="#47CE74" opacity="1.000000" stroke="none" d="
M588.983643,116.634758
	C588.056091,118.052246 587.196716,119.758049 586.210205,119.835083
	C582.239014,120.145172 578.204956,120.217140 574.239441,119.866188
	C570.636841,119.547363 570.077087,116.345581 570.116028,113.585617
	C570.291382,101.162788 570.331787,88.718445 571.160583,76.331345
	C571.714417,68.052948 573.018005,59.743622 574.889404,51.657188
	C576.771973,43.522739 585.124146,37.883400 593.355835,38.039371
	C599.949341,38.164307 606.629272,38.047497 613.102905,39.085407
	C621.320679,40.402943 626.002930,46.843624 627.671753,54.118332
	C629.820618,63.485992 630.460083,73.102547 629.325256,83.005424
	C628.225464,92.602829 629.452576,102.498581 630.021118,112.242104
	C630.304993,117.106964 628.202881,120.009323 623.294861,119.991013
	C608.825745,119.937035 609.923584,121.684853 610.028931,106.588478
	C610.116760,94.000549 610.085815,94.000298 597.410461,93.999184
	C595.123962,93.998985 592.837463,93.999161 590.268555,93.999161
	C589.824585,101.720032 589.408997,108.947220 588.983643,116.634758
M601.475525,76.999725
	C604.555786,76.999725 607.636047,76.999725 611.789978,76.999725
	C610.774597,71.020164 610.133911,65.874466 608.979553,60.846706
	C607.892273,56.111240 603.934082,54.555473 599.674072,54.472214
	C595.836365,54.397217 592.335876,56.283230 591.508362,60.214146
	C590.386353,65.544022 590.138184,71.057846 589.457153,76.999908
	C593.933472,76.999908 597.216431,76.999908 601.475525,76.999725
z" />
  <path fill="#47CE74" opacity="1.000000" stroke="none" d="
M363.329163,43.273979
	C368.460510,39.284790 373.843353,37.395115 380.080811,37.951866
	C383.218048,38.231895 386.419250,38.222088 389.559875,37.961620
	C401.913300,36.937107 411.724030,48.786201 411.963806,59.329033
	C412.375000,77.410553 412.574493,95.497154 413.046539,113.576828
	C413.168884,118.263390 411.497742,120.424911 406.695862,120.031853
	C404.381317,119.842400 402.038391,120.007706 399.708374,119.997276
	C394.781372,119.975235 392.480865,117.175606 393.006897,112.285614
	C393.498840,107.712196 393.601868,103.098160 394.023834,98.515602
	C394.333374,95.154999 392.452118,94.076187 389.621277,94.034538
	C384.319763,93.956520 379.016266,94.012085 372.637451,94.012085
	C372.637451,102.652878 372.637451,110.979385 372.637451,119.964493
	C366.962463,119.964493 362.325012,120.260567 357.768433,119.783905
	C356.403107,119.641083 354.302002,117.410713 354.201660,116.016945
	C353.907593,111.932953 354.593353,107.789566 354.619690,103.667686
	C354.639343,100.590111 353.930359,97.496468 354.066162,94.433037
	C354.614075,82.071617 354.790955,69.647446 356.324005,57.399033
	C356.928192,52.571751 360.724426,48.143986 363.329163,43.273979
M389.317810,76.999596
	C390.755676,76.896515 392.193542,76.793434 394.421814,76.633690
	C393.860657,71.049683 393.760803,65.766396 392.690735,60.687523
	C391.737061,56.160931 387.822449,55.030853 383.530457,54.740635
	C379.719147,54.482925 376.419128,55.239830 375.455322,59.195019
	C374.086212,64.813271 373.359314,70.587997 372.234467,76.999939
	C378.453430,76.999939 383.403046,76.999939 389.317810,76.999596
z" />
  <path fill="#47CE74" opacity="1.000000" stroke="none" d="
M480.851013,115.386688
	C479.342712,119.149399 476.830780,119.944000 473.262024,120.113228
	C460.889160,120.699936 457.640869,118.777534 450.866486,104.628883
	C448.217621,99.096611 445.642883,93.528854 441.916962,88.253410
	C441.916962,96.878296 442.104126,105.509468 441.814880,114.124641
	C441.714386,117.117622 441.160553,120.269600 436.430145,120.083092
	C421.771149,119.505096 422.945892,122.769730 423.049255,107.056465
	C423.095428,100.037033 423.962952,93.018829 423.914062,86.003860
	C423.826294,73.406883 423.239716,60.814228 423.031586,48.216965
	C422.887207,39.478771 423.489838,39.000641 432.225586,38.999512
	C440.598206,38.998428 448.970825,38.997406 457.343445,39.000740
	C467.994812,39.004986 473.891296,44.045521 477.249298,54.234550
	C480.066101,62.781399 479.227600,70.632263 473.947784,77.410324
	C470.794800,81.458054 465.855042,84.113976 461.371002,87.671234
	C463.070221,91.113503 464.873535,95.561295 467.401215,99.550064
	C468.655609,101.529594 471.023621,103.303772 473.263947,104.067192
	C480.891266,106.666260 481.035248,106.590553 480.851013,115.386688
M450.058990,70.910759
	C451.326630,70.608437 452.601746,70.023033 453.860535,70.056244
	C457.832428,70.161034 460.950958,67.974762 460.497528,64.536263
	C460.102264,61.539284 457.577789,57.534008 454.955261,56.420120
	C450.960846,54.723537 446.069733,55.138172 441.484772,54.648285
	C441.484772,60.592216 441.484772,65.648605 441.484772,70.980446
	C444.206757,70.980446 446.684265,70.980446 450.058990,70.910759
z" />
  <path fill="#47CE74" opacity="1.000000" stroke="none" d="
M693.344604,50.792252
	C694.468994,54.228462 695.447876,57.337994 696.227722,60.496677
	C697.257507,64.667885 695.814453,66.683365 691.622559,66.965080
	C689.467285,67.109932 687.290833,66.915192 685.130615,67.016052
	C680.691467,67.223320 677.376526,67.142281 676.608704,60.952377
	C676.009460,56.121059 671.319824,54.695980 666.226746,54.858475
	C661.105713,55.021862 658.466187,58.309269 658.281921,62.082203
	C657.712402,73.744049 657.726624,85.472305 658.324036,97.133278
	C658.541565,101.378860 662.703308,103.945625 666.925110,103.819588
	C671.258118,103.690216 675.393127,102.017601 676.867432,97.136086
	C677.381653,95.433739 677.577209,93.635170 678.089905,90.997643
	C675.476440,90.997643 673.090637,91.038307 670.707275,90.980042
	C669.560974,90.952019 667.464355,90.883141 667.418823,90.585213
	C666.753723,86.230080 665.621826,81.742081 666.145813,77.475471
	C666.549438,74.189400 670.062744,74.290642 673.249023,74.549095
	C679.364319,75.045151 685.554871,74.631866 691.664978,75.162643
	C693.449402,75.317665 696.530396,77.388847 696.532166,78.585419
	C696.547668,89.019722 698.082886,99.654556 692.335388,109.449356
	C689.027161,115.087311 684.598572,119.195641 678.361328,120.012192
	C671.383545,120.925682 664.031799,121.554169 657.193542,120.336739
	C647.815247,118.667107 642.473389,111.737221 640.750305,102.367760
	C637.633789,85.421120 636.525757,68.479500 642.002197,51.754845
	C644.891846,42.929913 652.008057,37.853878 661.408936,38.056370
	C667.820557,38.194473 674.360413,38.192165 680.585205,39.489319
	C686.379333,40.696724 690.717041,44.784321 693.344604,50.792252
z" />
  <path fill="#47CE74" opacity="1.000000" stroke="none" d="
M343.745941,106.996605
	C343.496552,110.099464 342.955048,113.213249 343.070709,116.302444
	C343.219788,120.285065 341.027649,121.148575 337.818604,120.934380
	C336.534180,120.848640 335.295227,120.186592 334.006744,120.039574
	C324.990997,119.010849 324.989502,119.032028 324.991455,109.856483
	C324.992950,102.742805 324.991760,95.629128 324.991760,88.262085
	C318.536438,88.262085 312.617035,88.262085 306.009674,88.262085
	C306.009674,90.135590 306.013031,91.899765 306.009094,93.663933
	C305.992279,101.194664 306.032471,108.726219 305.927368,116.255737
	C305.882385,119.478050 302.767761,121.543350 299.163727,120.934723
	C297.558563,120.663658 295.974609,120.096039 294.367371,120.037529
	C286.989075,119.768929 286.990845,119.816429 286.995178,112.188980
	C287.000000,103.693481 286.875275,95.195786 287.027405,86.702995
	C287.247345,74.426201 287.797241,62.154709 287.959747,49.877686
	C288.103821,38.992668 287.955292,38.990704 298.815308,39.000984
	C305.984222,39.007771 305.987946,39.007767 305.991852,46.208286
	C305.996216,54.194920 305.992859,62.181549 305.992859,70.583725
	C312.272247,70.583725 318.316681,70.583725 324.679688,70.583725
	C326.327087,62.021351 326.741302,53.432629 325.091400,44.724934
	C324.424377,41.204563 325.995148,38.955402 329.973206,38.995262
	C345.078033,39.146610 344.005615,37.109543 343.999420,52.277271
	C343.995728,61.271538 343.957642,70.265785 343.727875,80.102234
	C343.595795,89.628487 343.670868,98.312546 343.745941,106.996605
z" />
  <path fill="#47CE74" opacity="1.000000" stroke="none" d="
M243.163666,38.028221
	C249.553940,38.358295 255.695969,37.841747 261.363190,39.244064
	C269.732269,41.314953 275.072693,47.047573 276.529877,55.996563
	C279.028656,71.342316 275.180908,82.112801 258.978241,87.394363
	C256.403320,88.233711 253.424927,87.915916 250.629593,87.978714
	C246.841858,88.063812 243.050781,87.999878 238.996460,87.999878
	C238.996460,97.600403 238.911636,106.614876 239.042023,115.626236
	C239.088257,118.820503 237.974274,120.098267 234.699402,120.038010
	C218.254456,119.735474 221.166840,122.116333 221.027328,106.871338
	C220.843155,86.743988 220.984253,66.613541 221.010910,46.484451
	C221.019699,39.857788 221.892517,39.131119 228.405029,38.962761
	C233.175797,38.839436 237.937378,38.360352 243.163666,38.028221
M239.101120,68.674706
	C238.731445,70.855385 239.241318,72.282745 241.864487,71.998917
	C245.118622,71.646820 248.376068,71.324814 251.633194,71.000999
	C257.595123,70.408279 259.928558,66.303902 257.405426,60.836460
	C255.302704,56.280003 245.003922,52.821354 240.557938,55.336517
	C239.925766,55.694153 239.674194,57.108608 239.630005,58.051907
	C239.477127,61.315296 239.493744,64.586624 239.101120,68.674706
z" />
  <path fill="#58A569" opacity="1.000000" stroke="none" d="
M164.000885,124.000000
	C164.000885,83.907578 164.000885,44.315151 164.000885,4.722728
	C164.419006,4.383803 164.837128,4.044878 165.255249,3.705952
	C166.166351,4.736116 167.181168,5.696980 167.938202,6.830071
	C168.247025,7.292309 168.000732,8.127900 168.000748,8.793630
	C168.001282,55.396660 168.002960,101.999695 167.991821,148.602722
	C167.991501,149.904770 167.853531,151.206787 167.783875,152.435867
	C164.298737,153.875778 163.969666,152.003830 163.984833,149.465698
	C164.034592,141.144058 164.001892,132.821930 164.000885,124.000000
z" />
  <path fill="#3FBF71" opacity="1.000000" stroke="none" d="
M343.854187,106.537766
	C343.670868,98.312546 343.595795,89.628487 343.652161,80.579147
	C343.843231,88.835556 343.902863,97.457245 343.854187,106.537766
z" />
  <path fill="#00000000" opacity="1.000000" stroke="none" d="
M743.800049,98.416962
	C740.798950,103.563652 737.011963,105.427048 731.529785,103.871559
	C727.060730,102.603531 725.159668,98.742462 725.067139,94.383659
	C724.864929,84.858307 724.887268,75.323784 725.046387,65.796822
	C725.142944,60.020077 728.678711,55.681931 733.280273,55.049500
	C738.639832,54.312889 743.287170,57.454945 744.300049,63.855671
	C746.096252,75.207153 745.996826,86.660172 743.800049,98.416962
z" />
  <path fill="#00000000" opacity="1.000000" stroke="none" d="
M57.857883,43.999638
	C69.570068,44.087372 79.299278,46.907810 85.837891,57.194122
	C93.528816,69.293213 87.377754,88.465714 73.630745,92.849983
	C68.883263,94.364067 63.656403,94.505936 58.619637,94.938080
	C55.007576,95.247993 51.347504,94.998360 47.082840,94.998360
	C47.082840,104.405220 47.082840,113.457512 47.082840,122.754539
	C42.535374,122.754539 38.613514,122.754539 34.343578,122.754539
	C34.343578,96.605934 34.343578,70.570602 34.343578,43.999622
	C42.144394,43.999622 49.760334,43.999622 57.857883,43.999638
M47.009987,60.781303
	C47.009987,67.699928 47.009987,74.618553 47.009987,81.477119
	C48.042217,81.733139 48.504749,81.945114 48.968613,81.948059
	C54.447975,81.982880 59.928608,82.059875 65.406792,81.980240
	C72.770470,81.873184 77.075691,77.053131 76.998573,69.169960
	C76.930374,62.196964 72.630013,58.043510 65.397865,58.006775
	C60.582512,57.982315 55.761200,57.873993 50.955173,58.087372
	C49.628841,58.146263 48.347744,59.224030 47.009987,60.781303
z" />
  <path fill="#00000000" opacity="1.000000" stroke="none" d="
M600.987427,76.999817
	C597.216431,76.999908 593.933472,76.999908 589.457153,76.999908
	C590.138184,71.057846 590.386353,65.544022 591.508362,60.214146
	C592.335876,56.283230 595.836365,54.397217 599.674072,54.472214
	C603.934082,54.555473 607.892273,56.111240 608.979553,60.846706
	C610.133911,65.874466 610.774597,71.020164 611.789978,76.999725
	C607.636047,76.999725 604.555786,76.999725 600.987427,76.999817
z" />
  <path fill="#00000000" opacity="1.000000" stroke="none" d="
M388.835236,76.999771
	C383.403046,76.999939 378.453430,76.999939 372.234467,76.999939
	C373.359314,70.587997 374.086212,64.813271 375.455322,59.195019
	C376.419128,55.239830 379.719147,54.482925 383.530457,54.740635
	C387.822449,55.030853 391.737061,56.160931 392.690735,60.687523
	C393.760803,65.766396 393.860657,71.049683 394.421814,76.633690
	C392.193542,76.793434 390.755676,76.896515 388.835236,76.999771
z" />
  <path fill="#00000000" opacity="1.000000" stroke="none" d="
M449.610352,70.945602
	C446.684265,70.980446 444.206757,70.980446 441.484772,70.980446
	C441.484772,65.648605 441.484772,60.592216 441.484772,54.648285
	C446.069733,55.138172 450.960846,54.723537 454.955261,56.420120
	C457.577789,57.534008 460.102264,61.539284 460.497528,64.536263
	C460.950958,67.974762 457.832428,70.161034 453.860535,70.056244
	C452.601746,70.023033 451.326630,70.608437 449.610352,70.945602
z" />
  <path fill="#00000000" opacity="1.000000" stroke="none" d="
M239.273468,68.264816
	C239.493744,64.586624 239.477127,61.315296 239.630005,58.051907
	C239.674194,57.108608 239.925766,55.694153 240.557938,55.336517
	C245.003922,52.821354 255.302704,56.280003 257.405426,60.836460
	C259.928558,66.303902 257.595123,70.408279 251.633194,71.000999
	C248.376068,71.324814 245.118622,71.646820 241.864487,71.998917
	C239.241318,72.282745 238.731445,70.855385 239.273468,68.264816
z" />
  <path fill="#47CE74" opacity="1.000000" stroke="none" d="
M47.027939,60.307800
	C48.347744,59.224030 49.628841,58.146263 50.955173,58.087372
	C55.761200,57.873993 60.582512,57.982315 65.397865,58.006775
	C72.630013,58.043510 76.930374,62.196964 76.998573,69.169960
	C77.075691,77.053131 72.770470,81.873184 65.406792,81.980240
	C59.928608,82.059875 54.447975,81.982880 48.968613,81.948059
	C48.504749,81.945114 48.042217,81.733139 47.009987,81.477119
	C47.009987,74.618553 47.009987,67.699928 47.027939,60.307800
z" />
</svg>
